<svg width="372" height="174" viewBox="0 0 372 174" fill="none" xmlns="http://www.w3.org/2000/svg">
<path d="M53.89 11.0438C93.3 11.0438 112.38 19.2238 112.38 45.0038C112.38 72.6738 75.9 79.1738 71.5 87.1438C67.94 94.2738 91.42 91.5438 103.78 110.414C116.99 130.334 102.73 170.584 127.89 170.584V173.104H106.09C89.74 173.104 88.48 165.344 88.48 152.564C88.48 137.474 88.48 117.554 82.4 107.494C78 100.154 62.27 91.9838 69.61 82.9638C76.11 74.9938 91.2 69.3338 91.2 49.8438C91.2 21.5438 75.48 13.5738 54.09 13.5738C49.06 13.5738 35.85 14.8338 35.85 20.2838V163.884C35.85 169.544 45.49 169.964 50.52 170.594V173.114H0V170.594C5.24 169.964 14.67 169.544 14.67 163.884V20.2638C14.67 14.6038 5.24 14.1838 0 13.5538V11.0338H53.88L53.89 11.0438Z" fill="#070713"/>
<path d="M162.9 13.1338C155.98 13.1338 150.32 18.7938 150.32 25.7138C150.32 32.6338 155.98 38.2938 162.9 38.2938C169.82 38.2938 175.48 32.8438 175.48 25.7138C175.48 18.5838 169.82 13.1338 162.9 13.1338Z" fill="#070713"/>
<path d="M186.38 170.994V173.094H140.05V170.994C145.29 170.364 153.67 169.944 153.67 164.494V66.3838C153.67 64.8838 152.98 63.7538 151.87 62.9038C149.12 60.7838 143.79 60.3338 140.05 59.8838V57.7938H172.75V164.494C172.75 169.944 181.98 170.364 186.38 170.994Z" fill="#070713"/>
<path d="M232.5 60.5138V164.494C232.5 169.734 243.82 170.574 248.22 170.994V173.094H199.79V170.994C205.03 170.574 213.42 169.734 213.42 164.494V57.5838C213.42 23.4138 235.22 6.85379 250.95 1.82379C270.24 -4.25622 297.07 5.17379 292.04 25.5138C291.83 27.1938 286.59 36.6238 281.98 35.7838C277.79 34.9438 281.98 22.3638 273.8 12.0938C268.35 5.17379 259.75 1.61378 249.48 4.96378C233.55 10.2038 232.5 31.3838 232.5 57.5838V60.5138Z" fill="#070713"/>
<path d="M310.9 60.5138V164.494C310.9 169.734 322.22 170.574 326.62 170.994V173.094H278.19V170.994C283.43 170.574 291.82 169.734 291.82 164.494V57.5838C291.82 23.4138 313.62 6.85379 329.35 1.82379C348.64 -4.25622 375.47 5.17379 370.44 25.5138C370.23 27.1938 364.99 36.6238 360.38 35.7838C356.19 34.9438 360.38 22.3638 352.2 12.0938C346.75 5.17379 338.16 1.61378 327.88 4.96378C311.95 10.2038 310.9 31.3838 310.9 57.5838V60.5138Z" fill="#070713"/>
<path d="M371.05 59.5138C364.31 67.9638 352.25 68.4438 342.35 69.3038C326.28 70.4438 309.77 71.0938 294.14 73.4638C293.86 73.5038 293.59 73.5438 293.31 73.5838C286.97 74.6038 280.85 75.7638 275.06 77.8538C274.36 78.1038 273.66 78.3738 272.97 78.6538C264.88 81.6538 259.5 88.7738 253.06 94.5138C247.71 99.3838 240.99 104.814 233.13 104.544C228.72 104.374 224.86 102.004 222.34 99.4338C219.86 96.9838 217.75 94.3938 215.74 91.7938C213.63 89.0438 211.63 86.2838 209.46 83.6838C205.69 79.0538 201.52 74.7338 196.66 71.4438C196.18 71.1138 195.68 70.7938 195.18 70.4838C184.08 63.2638 170.56 64.1038 158.08 66.0638C157.38 66.1738 156.68 66.2838 155.99 66.4038V57.7938H172.74C184.22 60.4838 191.68 64.1838 196.66 67.5938C196.79 67.6838 196.93 67.7738 196.95 67.7938C202.61 71.6938 207.46 76.5238 212 81.4738C213.26 82.8338 214.5 84.2038 215.74 85.5538C217.85 87.8538 219.98 90.1238 222.27 92.2438C225.15 94.9738 229.29 98.2738 233.09 97.7238C238.8 96.8038 242.78 92.2138 246.86 88.1738C251.67 83.2238 255.71 77.9938 261.39 73.5038C263.5 71.8838 266.37 70.2838 268.79 69.1938C270.83 68.2238 272.93 67.4038 275.06 66.6938C280.56 64.8538 286.28 63.7838 291.78 63.0138C292.57 62.9038 293.35 62.8038 294.14 62.7138C313.49 60.4438 332.83 62.2538 352.14 63.1638C358.52 63.2138 365.08 62.8638 370.34 58.8138L371.05 59.5138Z" fill="url(#paint0_linear_908_381)"/>
<path d="M371.05 59.5138C364.31 67.9638 352.25 68.4438 342.35 69.3038C326.28 70.4438 309.77 71.0938 294.14 73.4638C293.86 73.5038 293.59 73.5438 293.31 73.5838C286.97 74.6038 280.85 75.7638 275.06 77.8538C274.36 78.1038 273.66 78.3738 272.97 78.6538C264.88 81.6538 259.5 88.7738 253.06 94.5138C247.71 99.3838 240.99 104.814 233.13 104.544C228.72 104.374 224.86 102.004 222.34 99.4338C219.86 96.9838 217.75 94.3938 215.74 91.7938C213.63 89.0438 211.63 86.2838 209.46 83.6838C205.69 79.0538 201.52 74.7338 196.66 71.4438C196.18 71.1138 195.68 70.7938 195.18 70.4838C184.08 63.2638 170.56 64.1038 158.08 66.0638C157.38 66.1738 156.68 66.2838 155.99 66.4038V57.7938H172.74C184.22 60.4838 191.68 64.1838 196.66 67.5938C196.79 67.6838 196.93 67.7738 196.95 67.7938C202.61 71.6938 207.46 76.5238 212 81.4738C213.26 82.8338 214.5 84.2038 215.74 85.5538C217.85 87.8538 219.98 90.1238 222.27 92.2438C225.15 94.9738 229.29 98.2738 233.09 97.7238C238.8 96.8038 242.78 92.2138 246.86 88.1738C251.67 83.2238 255.71 77.9938 261.39 73.5038C263.5 71.8838 266.37 70.2838 268.79 69.1938C270.83 68.2238 272.93 67.4038 275.06 66.6938C280.56 64.8538 286.28 63.7838 291.78 63.0138C292.57 62.9038 293.35 62.8038 294.14 62.7138C313.49 60.4438 332.83 62.2538 352.14 63.1638C358.52 63.2138 365.08 62.8638 370.34 58.8138L371.05 59.5138Z" fill="url(#paint1_radial_908_381)" fill-opacity="0.3"/>
<defs>
<linearGradient id="paint0_linear_908_381" x1="155.99" y1="81.1736" x2="371.05" y2="81.1736" gradientUnits="userSpaceOnUse">
<stop offset="0.129808" stop-color="#070713"/>
<stop offset="0.543269" stop-color="#3C38BD"/>
<stop offset="0.682692" stop-color="#16153C"/>
</linearGradient>
<radialGradient id="paint1_radial_908_381" cx="0" cy="0" r="1" gradientUnits="userSpaceOnUse" gradientTransform="translate(371.05 58.9691) rotate(131.634) scale(56.23 32.7914)">
<stop offset="0.0769231" stop-color="#7E7AE8"/>
<stop offset="1" stop-color="#7E7AE8" stop-opacity="0"/>
</radialGradient>
</defs>
</svg>
