<svg width="118" height="55" viewBox="0 0 118 55" fill="none" xmlns="http://www.w3.org/2000/svg">
<path d="M17.028 3.48961C29.4807 3.48961 35.5096 6.07431 35.5096 14.2202C35.5096 22.9633 23.9827 25.0172 22.5924 27.5355C21.4675 29.7884 28.8867 28.9258 32.7922 34.8883C36.9662 41.1826 32.4604 53.9007 40.4104 53.9007V54.6969H33.5221C28.3558 54.6969 27.9577 52.245 27.9577 48.2068C27.9577 43.4387 27.9577 37.1444 26.0366 33.9656C24.6463 31.6464 19.6759 29.0648 21.9952 26.2147C24.0491 23.6964 28.8172 21.9079 28.8172 15.7495C28.8172 6.80737 23.85 4.28903 17.0912 4.28903C15.5019 4.28903 11.3278 4.68717 11.3278 6.40924V51.7836C11.3278 53.5721 14.3738 53.7048 15.9632 53.9038V54.7001H0V53.9038C1.65572 53.7048 4.63539 53.5721 4.63539 51.7836V6.40292C4.63539 4.61449 1.65572 4.48178 0 4.28271V3.48645H17.0249L17.028 3.48961Z" fill="#EAE9FB"/>
<path d="M51.473 4.15002C49.2865 4.15002 47.498 5.93846 47.498 8.12502C47.498 10.3116 49.2865 12.1 51.473 12.1C53.6596 12.1 55.448 10.3779 55.448 8.12502C55.448 5.8721 53.6596 4.15002 51.473 4.15002Z" fill="#EAE9FB"/>
<path d="M58.8912 54.0303V54.6938H44.252V54.0303C45.9077 53.8312 48.5556 53.6985 48.5556 51.9764V20.9758C48.5556 20.5019 48.3375 20.1448 47.9868 19.8762C47.1179 19.2064 45.4337 19.0642 44.252 18.922V18.2616H54.5844V51.9764C54.5844 53.6985 57.5009 53.8312 58.8912 54.0303Z" fill="#EAE9FB"/>
<path d="M73.4645 19.121V51.9763C73.4645 53.6321 77.0414 53.8975 78.4317 54.0302V54.6938H63.1289V54.0302C64.7846 53.8975 67.4357 53.6321 67.4357 51.9763V18.1952C67.4357 7.39823 74.324 2.16564 79.2943 0.576275C85.3895 -1.34487 93.8672 1.6348 92.2778 8.06178C92.2115 8.59263 90.5558 11.5723 89.0991 11.3069C87.7752 11.0415 89.0991 7.06645 86.5144 3.82136C84.7923 1.6348 82.0749 0.50992 78.8298 1.56844C73.7963 3.22417 73.4645 9.91657 73.4645 18.1952V19.121Z" fill="#EAE9FB"/>
<path d="M98.238 19.121V51.9763C98.238 53.6321 101.815 53.8975 103.205 54.0302V54.6938H87.9023V54.0302C89.5581 53.8975 92.2091 53.6321 92.2091 51.9763V18.1952C92.2091 7.39823 99.0974 2.16564 104.068 0.576275C110.163 -1.34487 118.641 1.6348 117.051 8.06178C116.985 8.59263 115.329 11.5723 113.873 11.3069C112.549 11.0415 113.873 7.06645 111.288 3.82136C109.566 1.6348 106.852 0.50992 103.603 1.56844C98.5697 3.22417 98.238 9.91657 98.238 18.1952V19.121Z" fill="#EAE9FB"/>
<path d="M117.243 18.8051C115.114 21.4751 111.303 21.6268 108.175 21.8985C103.097 22.2587 97.8801 22.4641 92.9414 23.213C92.8529 23.2256 92.7676 23.2382 92.6791 23.2509C90.6758 23.5732 88.742 23.9397 86.9125 24.6001C86.6913 24.6791 86.4701 24.7644 86.2521 24.8529C83.6959 25.8008 81.9959 28.0506 79.961 29.8643C78.2705 31.4031 76.1472 33.1189 73.6636 33.0335C72.2701 32.9798 71.0504 32.231 70.2542 31.4189C69.4706 30.6448 68.8038 29.8264 68.1687 29.0048C67.502 28.1359 66.8701 27.2638 66.1844 26.4423C64.9931 24.9793 63.6755 23.6143 62.1399 22.5747C61.9882 22.4704 61.8302 22.3693 61.6722 22.2714C58.1649 19.99 53.8929 20.2554 49.9495 20.8747C49.7283 20.9095 49.5071 20.9442 49.2891 20.9822V18.2616H54.5817C58.2091 19.1116 60.5663 20.2807 62.1399 21.3582C62.1809 21.3866 62.2252 21.4151 62.2315 21.4214C64.0199 22.6537 65.5524 24.1799 66.987 25.7439C67.3851 26.1737 67.7769 26.6066 68.1687 27.0331C68.8354 27.7599 69.5085 28.4772 70.2321 29.147C71.1421 30.0096 72.4502 31.0524 73.6509 30.8786C75.4552 30.5879 76.7128 29.1375 78.0019 27.861C79.5218 26.2969 80.7983 24.6443 82.5931 23.2256C83.2598 22.7137 84.1667 22.2082 84.9313 21.8637C85.5759 21.5572 86.2395 21.2981 86.9125 21.0738C88.6504 20.4924 90.4578 20.1543 92.1957 19.911C92.4453 19.8762 92.6917 19.8446 92.9414 19.8162C99.0555 19.0989 105.167 19.6709 111.268 19.9584C113.284 19.9742 115.357 19.8636 117.019 18.5839L117.243 18.8051Z" fill="#EAE9FB"/>
</svg>
